<svg width="30" height="30" viewBox="0 0 30 30" fill="none" xmlns="http://www.w3.org/2000/svg">
<path d="M0 14.55C0 6.18937 6.54938 0 15 0C23.4506 0 30 6.18937 30 14.55C30 22.9106 23.4506 29.1 15 29.1C13.4812 29.1 12.0262 28.8994 10.6575 28.5244C10.3921 28.4505 10.1093 28.4704 9.85687 28.5806L6.87937 29.8969C6.69955 29.9762 6.50299 30.0101 6.30697 29.9957C6.11095 29.9813 5.92148 29.9189 5.75521 29.8141C5.58893 29.7093 5.45095 29.5653 5.35337 29.3947C5.2558 29.224 5.20163 29.0321 5.19562 28.8356L5.11312 26.1675C5.10743 26.0051 5.06875 25.8455 4.99945 25.6986C4.93014 25.5516 4.83167 25.4202 4.71 25.3125C1.7925 22.7025 0 18.9225 0 14.55ZM10.3988 11.8144L5.9925 18.8044C5.57063 19.4756 6.39375 20.2312 7.02562 19.7531L11.76 16.1606C11.9157 16.0424 12.1057 15.978 12.3012 15.9773C12.4968 15.9767 12.6872 16.0397 12.8438 16.1569L16.3481 18.7856C16.5968 18.9721 16.8813 19.105 17.1839 19.176C17.4865 19.247 17.8005 19.2546 18.1061 19.1982C18.4118 19.1418 18.7024 19.0228 18.9597 18.8485C19.2171 18.6742 19.4355 18.4485 19.6013 18.1856L24.0075 11.1956C24.4312 10.5244 23.6063 9.76875 22.9744 10.2469L18.24 13.8394C18.0843 13.9576 17.8943 14.022 17.6988 14.0227C17.5032 14.0233 17.3128 13.9603 17.1562 13.8431L13.6519 11.2125C13.4032 11.026 13.1187 10.8931 12.8161 10.8221C12.5135 10.7511 12.1995 10.7435 11.8939 10.7999C11.5882 10.8563 11.2976 10.9754 11.0403 11.1496C10.7829 11.3239 10.5645 11.5496 10.3988 11.8125V11.8144Z" fill="#EDDCD2"/>
</svg>
