<svg width="35" height="35" viewBox="0 0 35 35" fill="none" xmlns="http://www.w3.org/2000/svg">
<path d="M17.5 2.91667C9.27499 2.91667 2.91666 8.93958 2.91666 17.0625C2.91666 21.3062 4.65207 24.9958 7.49582 27.5188C7.72916 27.7083 7.87499 28.0292 7.88957 28.35L7.96249 30.9458C8.02082 31.7771 8.85207 32.3167 9.61041 31.9813L12.4979 30.7125C12.7458 30.625 13.0229 30.5813 13.2708 30.625C14.5833 31.0188 16.0417 31.2083 17.5 31.2083C25.725 31.2083 32.0833 25.1854 32.0833 17.0625C32.0833 8.93958 25.725 2.91667 17.5 2.91667ZM26.25 13.7958L21.9771 20.6063C21.2917 21.6708 19.8333 21.9479 18.8125 21.1458L15.4 18.6229C15.2485 18.5093 15.0643 18.4479 14.875 18.4479C14.6857 18.4479 14.5014 18.5093 14.35 18.6229L9.74166 22.1229C9.12916 22.6042 8.32707 21.875 8.74999 21.2042L13.0229 14.3937C13.7083 13.3292 15.1667 13.0521 16.1875 13.8104L19.6 16.3771C19.7514 16.4907 19.9357 16.5521 20.125 16.5521C20.3143 16.5521 20.4985 16.4907 20.65 16.3771L25.2583 12.8771C25.8708 12.3958 26.6729 13.125 26.25 13.7958V13.7958Z" fill="#B0988E"/>
</svg>
